<?xml version="1.0" standalone="no"?>
<!DOCTYPE svg PUBLIC "-//W3C//DTD SVG 20010904//EN"
 "http://www.w3.org/TR/2001/REC-SVG-20010904/DTD/svg10.dtd">
<svg version="1.0" xmlns="http://www.w3.org/2000/svg"
 width="700.000000pt" height="700.000000pt" viewBox="0 0 700.000000 700.000000"
 preserveAspectRatio="xMidYMid meet">
<metadata>
Created by potrace 1.14, written by Peter Selinger 2001-2017
</metadata>
<g transform="translate(0.000000,700.000000) scale(0.100000,-0.100000)"
fill="#000000" stroke="none">
<path d="M3719 6963 c-24 -21 -105 -89 -179 -153 -74 -64 -160 -135 -191 -158
-65 -49 -202 -122 -227 -122 -42 1 -71 43 -132 192 -57 140 -120 166 -169 70
-24 -48 -31 -83 -36 -180 -6 -120 -31 -192 -66 -192 -17 0 -95 133 -122 208
-15 39 -39 105 -54 145 -31 84 -69 129 -103 120 -40 -11 -171 -197 -266 -381
-64 -124 -161 -348 -177 -412 -13 -48 -21 -54 -53 -37 -16 8 -39 26 -51 39
-28 31 -116 220 -154 332 -40 119 -60 146 -107 146 -33 0 -41 -5 -68 -47 -43
-66 -74 -151 -99 -273 -1 -8 -8 -35 -15 -60 -7 -25 -14 -55 -16 -68 -13 -71
-80 -210 -116 -240 -12 -9 -19 -8 -35 11 -11 12 -28 38 -36 57 -14 32 -95 240
-110 283 -10 27 -36 32 -52 11 -8 -11 -21 -39 -30 -64 -16 -42 -21 -55 -44
-112 -79 -191 -114 -386 -110 -618 3 -261 1 -283 -30 -300 -16 -8 -27 -3 -59
23 -21 18 -88 64 -148 102 -60 37 -118 77 -130 87 -11 10 -25 18 -31 18 -6 0
-16 7 -24 16 -12 14 -14 14 -21 -5 -7 -20 -3 -450 6 -501 2 -14 7 -56 11 -95
4 -38 8 -72 10 -75 1 -3 6 -32 10 -65 3 -33 11 -80 16 -105 10 -45 10 -45 -33
-84 -124 -113 -175 -167 -215 -228 -108 -166 -228 -474 -249 -638 -12 -100
-11 -285 2 -378 40 -271 133 -476 327 -721 37 -46 68 -91 68 -100 1 -9 3 -33
4 -53 6 -91 18 -168 35 -228 10 -36 33 -119 50 -185 18 -66 41 -138 51 -159
11 -22 19 -43 19 -48 0 -10 24 -64 105 -233 101 -213 258 -426 465 -635 210
-211 379 -330 680 -478 243 -120 486 -216 614 -242 55 -12 108 -23 116 -25 8
-3 56 -13 107 -24 50 -11 118 -27 150 -35 32 -8 78 -17 103 -21 25 -4 54 -9
65 -11 11 -3 36 -7 55 -9 19 -3 46 -8 60 -11 42 -10 990 -12 1070 -2 41 5 111
18 155 29 44 12 88 22 97 24 106 21 621 156 713 186 109 36 232 97 268 133 8
8 56 38 108 66 259 143 467 305 627 488 28 31 65 73 82 92 253 284 393 588
479 1038 53 278 53 281 53 409 -1 142 -5 178 -53 407 -21 104 -39 207 -39 230
0 23 12 68 26 101 97 225 124 301 140 400 3 22 8 43 10 46 7 11 17 142 18 214
0 202 -40 378 -124 545 -65 130 -58 157 64 239 65 44 81 62 127 137 51 85 94
182 85 191 -2 3 -91 6 -198 6 -189 2 -194 3 -245 29 -66 35 -93 70 -93 120 0
77 52 127 167 163 107 34 116 45 61 78 -102 58 -225 109 -393 162 -197 62
-261 92 -276 133 -15 38 -4 80 56 224 54 127 69 173 79 238 3 19 10 60 16 90
12 59 15 184 6 199 -4 6 -34 2 -74 -10 -264 -77 -584 -144 -882 -184 -63 -9
-126 -18 -140 -20 -14 -2 -47 -6 -75 -10 -27 -3 -86 -10 -129 -16 -102 -13
-140 -6 -168 32 -26 34 -26 34 -33 169 -3 58 -7 123 -10 145 -2 22 -7 83 -10
135 -5 93 -16 214 -18 217 -1 0 -37 -25 -81 -58 -119 -89 -584 -359 -618 -359
-34 0 -68 20 -87 51 -21 34 -28 83 -36 254 -6 106 -26 208 -44 219 -4 3 -28
-11 -52 -31z m2008 -4469 c-3 -3 -12 -4 -19 -1 -8 3 -5 6 6 6 11 1 17 -2 13
-5z m40 0 c-3 -3 -12 -4 -19 -1 -8 3 -5 6 6 6 11 1 17 -2 13 -5z m77 -6 c-3
-4 -11 -5 -19 -1 -21 7 -19 12 4 10 11 0 18 -5 15 -9z m-2044 -322 c0 -2 -26
-14 -57 -26 -32 -13 -71 -29 -88 -36 -90 -37 -302 -101 -310 -92 -3 3 432 156
448 157 4 1 7 -1 7 -3z"/>
</g>
</svg>
