<?xml version="1.0"?>
<svg version="1.1" id="圖層_1" xmlns="http://www.w3.org/2000/svg" x="0" y="0" viewBox="0 0 100 100" xml:space="preserve"><circle cx="50" cy="50" r="24.9" fill="#353035"/><path d="M82.3 46.8c-2.2-.6-4-2.3-4.6-4.5-3.4-12.4-14.8-21-27.7-21-12.9 0-24.3 8.7-27.7 21.1-.6 2.2-2.4 3.9-4.6 4.5-1.9.5-3.8 1-5.5 1.6L7.5 50l4.7 1.6c1.8.6 3.6 1.1 5.5 1.6 2.2.6 4 2.3 4.6 4.5 3.5 12.4 14.8 21 27.7 21 12.9 0 24.3-8.7 27.7-21.1.6-2.2 2.4-3.9 4.6-4.5 1.9-.5 3.7-1 5.5-1.6l4.7-1.6-4.7-1.6c-1.7-.5-3.5-1-5.5-1.5zM50 28.9c10.2 0 19 7.5 20.7 17.4-2.3-.2-4.7-.4-7-.6l-1-.1c-1.7-.2-3.3-.5-5.1-.8l-.8-.1c-2.3-.4-4.3-.6-6.4-.6H49.8c-2.6 0-5.1.5-7.5 1-1.7.3-3.4.7-5 .8-2 .2-4.1.4-6.1.5-.6 0-1.3.1-1.9.1C31 36.5 39.8 28.9 50 28.9zm0 42.2c-10.2 0-19.1-7.5-20.7-17.6.6 0 1.3.1 1.9.1 2.1.1 4.1.3 6.1.5 1.6.1 3.2.4 5 .8 2.4.5 4.9 1 7.5 1H50.4c2.1 0 4.2-.2 6.4-.6l.8-.1c1.8-.3 3.5-.6 5.1-.8l1-.1c2.3-.2 4.6-.4 7-.6C69 63.6 60.2 71.1 50 71.1zm21.1-20.9c-2.9.2-5.7.5-8.6.8-2.1.2-4.1.6-6.2 1-1.9.3-3.9.5-5.8.5H49.9c-4.1 0-8.2-1.4-12.2-1.7-2.1-.2-4.1-.4-6.2-.5-.8-.1-1.6-.1-2.4-.1v-.1-.1c.8 0 1.6-.1 2.4-.1 2.1-.1 4.1-.3 6.2-.5 4.1-.3 8.2-1.7 12.2-1.7H50.5c1.9 0 3.9.2 5.8.5 2.1.4 4.1.8 6.2 1 2.9.3 5.7.5 8.6.8v.2z" fill="#ffdc6c"/><path d="M67.4 48.6c-2.9-.3-5.8-.8-8.7-1.3-2.7-.5-5.4-.8-8.2-.8h-.8c-5.7 0-11.4 2-17.1 2.4-2.9.3-5.8.5-8.7.7-1.1.1-2.2.1-3.3.2v.4c1.1.1 2.2.1 3.3.2 2.9.2 5.8.4 8.7.7 5.7.4 11.4 2.4 17.1 2.4h.8c2.7 0 5.4-.3 8.2-.8 2.9-.5 5.8-1.1 8.7-1.3 4-.4 8-.8 12-1.1V50v-.3c-3.9-.3-7.9-.7-12-1.1z" fill="#fff"/><metadata xmlns:d="https://loading.io/stock/"><d:name>blackhole</d:name><d:tags>interstellar,wormhole,gravity,blackhole,astrology</d:tags><d:license>pro</d:license><d:slug>8b4ngh</d:slug></metadata></svg>