<?xml version="1.0" standalone="no"?>
<!DOCTYPE svg PUBLIC "-//W3C//DTD SVG 20010904//EN"
 "http://www.w3.org/TR/2001/REC-SVG-20010904/DTD/svg10.dtd">
<svg version="1.0" xmlns="http://www.w3.org/2000/svg"
 width="312.000000pt" height="312.000000pt" viewBox="0 0 312.000000 312.000000"
 preserveAspectRatio="xMidYMid meet">
<metadata>
Created by potrace 1.14, written by Peter Selinger 2001-2017
</metadata>
<g transform="translate(0.000000,312.000000) scale(0.100000,-0.100000)"
fill="#000000" stroke="none">
<path d="M1051 3030 c-45 -39 -145 -133 -224 -209 l-142 -138 -60 61 c-86 89
-154 120 -266 120 -76 1 -92 -2 -144 -29 -67 -35 -116 -96 -140 -178 -20 -69
-21 -289 0 -346 41 -117 156 -191 300 -195 l60 -1 0 -68 c0 -38 -3 -71 -7 -73
-4 -3 -17 0 -28 6 -11 6 -20 8 -20 6 0 -6 55 -36 65 -36 3 0 5 20 5 44 0 95
47 296 70 296 4 0 13 -13 20 -29 14 -34 104 -126 122 -126 7 0 18 26 26 60 20
90 52 195 60 195 4 0 19 -24 35 -53 26 -49 131 -177 146 -177 3 0 14 37 23 81
18 86 70 206 107 249 21 24 22 24 34 6 54 -85 167 -193 188 -181 5 4 9 30 10
58 1 67 12 109 21 85 4 -9 21 -24 38 -33 l30 -16 73 63 c195 169 181 164 192
68 10 -98 17 -120 32 -120 16 0 202 91 280 136 l43 26 1 -89 c1 -48 4 -101 8
-118 6 -28 9 -30 61 -33 85 -5 459 51 563 84 19 6 20 3 14 -46 -8 -63 -43
-144 -86 -192 -17 -20 -31 -38 -31 -41 0 -2 26 -8 57 -12 61 -7 212 -48 246
-67 18 -9 18 -11 4 -20 -9 -5 -49 -11 -89 -14 -40 -3 -75 -8 -78 -10 -9 -10
67 -68 126 -96 33 -15 87 -32 120 -36 l59 -8 -41 -40 c-27 -27 -60 -46 -98
-58 -56 -18 -80 -18 -175 0 -42 8 -51 -4 -51 -73 0 -49 -10 -67 -25 -43 -11
17 -107 86 -155 110 -34 18 -144 60 -155 60 -1 0 -5 -44 -7 -97 -5 -92 -20
-149 -55 -208 -11 -18 -14 -17 -65 30 -67 64 -139 115 -205 149 -29 14 -55 26
-57 26 -3 0 -25 -30 -49 -67 -25 -38 -58 -83 -74 -102 l-29 -34 -37 74 c-20
41 -47 87 -60 102 l-23 29 -53 -42 c-30 -24 -79 -69 -111 -101 l-57 -57 -24
86 c-28 101 -24 100 -139 44 -54 -26 -97 -58 -153 -112 -42 -42 -81 -73 -85
-70 -4 3 -21 35 -39 72 -34 70 -59 94 -155 147 -76 41 -156 61 -249 61 -75 0
-174 -25 -206 -52 -8 -6 -17 -7 -22 -2 -11 11 -51 139 -52 168 -1 15 -3 16 -6
5 -2 -10 3 -45 12 -80 l17 -63 -29 -21 c-86 -62 -137 -133 -179 -251 -19 -50
-24 -85 -24 -155 0 -135 34 -223 129 -333 27 -31 41 -57 41 -75 0 -49 49 -202
91 -285 66 -129 176 -255 304 -348 64 -46 208 -118 305 -152 41 -15 84 -31 95
-36 11 -5 98 -23 192 -40 157 -27 193 -30 387 -30 l215 0 208 46 c114 25 213
50 220 55 6 6 17 9 25 7 7 -2 27 7 43 18 17 12 59 36 95 54 101 51 178 107
261 189 130 129 191 244 229 429 25 127 25 163 -2 289 l-21 102 31 68 c62 134
64 275 6 402 -13 29 -24 59 -24 66 0 7 19 25 42 41 35 24 98 104 98 123 0 4
-37 6 -83 6 -94 0 -140 17 -145 53 -5 32 11 47 68 68 l49 17 -52 24 c-29 14
-92 36 -142 50 -49 14 -96 30 -102 36 -19 14 -16 42 9 90 26 52 48 131 48 178
l0 35 -72 -18 c-176 -45 -518 -89 -546 -72 -14 9 -19 37 -27 136 l-10 126 -35
-24 c-56 -39 -246 -134 -268 -134 -31 0 -39 19 -47 101 -4 42 -10 81 -14 87
-4 7 -33 -8 -80 -43 -40 -30 -80 -55 -90 -55 -27 0 -46 28 -71 105 -26 79 -76
183 -127 265 -38 59 -101 130 -117 130 -5 0 -17 7 -27 16 -16 14 -23 10 -98
-56z m158 -47 c81 -98 181 -355 181 -464 0 -37 -28 -18 -59 41 -51 94 -83 79
-97 -46 -4 -34 -12 -54 -20 -54 -15 0 -50 56 -74 118 -27 70 -43 75 -85 27
-46 -52 -108 -155 -137 -227 -13 -32 -29 -58 -35 -58 -17 0 -59 66 -88 137
-13 32 -31 59 -39 61 -13 3 -46 79 -46 107 0 6 48 53 108 103 59 50 157 136
217 191 61 55 118 100 127 101 9 0 30 -17 47 -37z m1437 -1440 c47 -47 94
-218 94 -342 0 -107 -15 -163 -55 -201 -30 -29 -43 -34 -93 -38 -33 -2 -108 4
-168 14 -60 10 -161 18 -224 18 -141 0 -204 -16 -439 -114 -175 -72 -247 -94
-346 -104 -209 -22 -412 116 -475 323 -24 78 -27 224 -6 276 15 36 36 47 36
20 0 -23 16 -18 35 11 16 24 21 26 64 21 26 -3 110 -29 187 -57 383 -143 646
-162 934 -68 68 22 178 74 242 114 21 13 40 24 44 24 8 0 -39 -82 -83 -143
-36 -52 -55 -110 -33 -105 7 2 19 -19 30 -49 9 -29 30 -68 46 -88 16 -21 33
-45 39 -56 5 -10 14 -19 20 -19 5 0 50 25 100 55 49 30 96 55 105 56 8 1 4 4
-10 8 -21 6 -24 12 -22 41 1 19 -2 49 -7 65 -9 28 -9 27 -10 -17 -1 -72 -13
-90 -84 -128 -66 -34 -66 -34 -87 -15 -28 26 -57 82 -69 136 -9 38 -7 46 18
83 16 23 40 65 55 94 14 28 30 52 35 52 20 0 72 -54 98 -101 34 -60 46 -63 29
-6 -19 62 -61 123 -95 138 -17 8 -31 19 -31 25 0 13 85 94 99 94 5 0 17 -8 27
-17z"/>
<path d="M1206 1303 c-3 -3 -31 -9 -63 -13 -54 -7 -55 -7 -15 -9 l42 -1 -25
-40 c-36 -57 -49 -128 -36 -190 11 -49 55 -130 72 -130 5 0 9 -4 9 -10 0 -5
-15 -10 -32 -11 -28 0 -30 -2 -13 -9 11 -5 59 -9 107 -9 48 -1 121 -6 162 -12
42 -6 88 -8 103 -4 l28 7 -28 10 -29 10 36 37 c35 36 66 105 66 145 -1 11 -9
-4 -20 -34 -12 -36 -32 -68 -58 -92 l-40 -37 -123 5 c-122 5 -124 5 -156 36
-42 41 -56 85 -51 163 5 80 43 145 86 145 30 0 341 -103 351 -117 8 -11 131
-17 131 -7 0 5 -22 16 -48 25 -26 9 -108 39 -182 67 -132 49 -264 85 -274 75z"/>
<path d="M1693 2395 c-68 -19 -139 -55 -183 -95 l-35 -31 73 36 c81 39 168 65
222 65 l37 0 -23 -67 c-13 -38 -24 -81 -24 -97 0 -26 2 -28 28 -21 40 10 134
25 159 25 l22 0 -24 -52 c-14 -29 -25 -58 -25 -64 0 -8 38 -10 123 -7 67 3
133 1 146 -4 23 -9 23 -10 -21 -36 -48 -28 -88 -66 -57 -55 53 20 164 49 224
58 38 6 71 13 74 15 6 7 -95 49 -154 66 -27 7 -96 14 -153 14 -118 0 -125 8
-55 60 23 16 42 33 42 36 2 13 -118 19 -193 9 -44 -5 -81 -8 -84 -6 -6 7 18
77 43 124 l24 42 -67 -1 c-37 0 -91 -7 -119 -14z"/>
<path d="M1107 2340 c-58 -46 -152 -196 -171 -272 l-6 -28 -58 45 -57 45 -9
-27 c-11 -32 7 -133 30 -173 9 -14 13 -17 10 -7 -9 28 -19 147 -13 147 3 0 32
-23 64 -51 l58 -51 13 49 c23 86 100 233 123 233 5 0 9 -11 9 -23 0 -42 64
-207 81 -207 4 0 21 22 38 48 17 27 42 59 56 72 l25 23 0 -56 c0 -65 14 -76
25 -19 4 20 20 79 37 130 16 52 27 96 25 99 -8 8 -130 -101 -162 -144 -16 -23
-34 -41 -39 -39 -16 4 -38 79 -44 154 l-7 74 -28 -22z"/>
<path d="M342 2004 c10 -10 20 -16 22 -13 3 3 -5 11 -17 18 -21 13 -21 12 -5
-5z"/>
<path d="M252 1955 c0 -16 2 -22 5 -12 2 9 2 23 0 30 -3 6 -5 -1 -5 -18z"/>
</g>
</svg>
