<?xml version="1.0"?><svg version="1.1" id="Layer_1" xmlns="http://www.w3.org/2000/svg" x="0" y="0" viewBox="0 0 100 100" xml:space="preserve"><circle cx="50" cy="50" r="40" fill="#333"/><path d="M67.659 45.138a39.634 39.634 0 0 1 4.292 4.966 17.607 17.607 0 0 0-7.427-12.122 17.89 17.89 0 0 0-1.662-1.023 39.66 39.66 0 0 1 6.2 2.155 17.606 17.606 0 0 0-14.443-6.839 39.693 39.693 0 0 1 6.447-1.234 17.604 17.604 0 0 0-14.211.371c-.596.281-1.168.592-1.717.928a39.634 39.634 0 0 1 4.966-4.292 17.602 17.602 0 0 0-12.122 7.427 17.89 17.89 0 0 0-1.023 1.662 39.66 39.66 0 0 1 2.155-6.2 17.606 17.606 0 0 0-6.839 14.444 39.673 39.673 0 0 1-1.234-6.447 17.604 17.604 0 0 0 .371 14.211c.281.596.592 1.168.928 1.717a39.634 39.634 0 0 1-4.292-4.966 17.607 17.607 0 0 0 7.427 12.122 17.68 17.68 0 0 0 1.662 1.023 39.66 39.66 0 0 1-6.2-2.155 17.606 17.606 0 0 0 14.443 6.839 39.693 39.693 0 0 1-6.447 1.234 17.604 17.604 0 0 0 14.211-.371 17.964 17.964 0 0 0 1.717-.928 39.634 39.634 0 0 1-4.966 4.292 17.605 17.605 0 0 0 12.122-7.427 17.89 17.89 0 0 0 1.023-1.662 39.66 39.66 0 0 1-2.155 6.2 17.604 17.604 0 0 0 6.839-14.443 39.673 39.673 0 0 1 1.234 6.447 17.604 17.604 0 0 0-.371-14.211 17.431 17.431 0 0 0-.928-1.718z" fill="#f7faf8"/><circle cx="50" cy="50" r="12.195" fill="#333"/><metadata xmlns:d="https://loading.io/stock/">
<d:name>blackhole</d:name>
<d:tags>blackhole,wormhole,pit,fall,dig,warp,whirl,spiral</d:tags>
<d:license>by</d:license>
<d:slug>ma9s83</d:slug>
</metadata></svg>