<?xml version="1.0" encoding="UTF-8" standalone="no"?>
<!-- Created with Inkscape (http://www.inkscape.org/) -->

<svg
   version="1.1"
   id="svg182"
   viewBox="0 0 99.999995 99.999995"
   sodipodi:docname="hero-image.svg"
   inkscape:version="1.2.2 (732a01da63, 2022-12-09)"
   width="100"
   height="100"
   xmlns:inkscape="http://www.inkscape.org/namespaces/inkscape"
   xmlns:sodipodi="http://sodipodi.sourceforge.net/DTD/sodipodi-0.dtd"
   xmlns="http://www.w3.org/2000/svg"
   xmlns:svg="http://www.w3.org/2000/svg">
  <sodipodi:namedview
     id="namedview192"
     pagecolor="#ffffff"
     bordercolor="#000000"
     borderopacity="0.25"
     inkscape:showpageshadow="2"
     inkscape:pageopacity="0.0"
     inkscape:pagecheckerboard="0"
     inkscape:deskcolor="#d1d1d1"
     showgrid="false"
     inkscape:zoom="2.0888418"
     inkscape:cx="34.708229"
     inkscape:cy="170.9081"
     inkscape:window-width="1920"
     inkscape:window-height="1009"
     inkscape:window-x="-8"
     inkscape:window-y="-8"
     inkscape:window-maximized="1"
     inkscape:current-layer="svg182" />
  <defs
     id="defs186" />
  <g
     id="g310"
     transform="matrix(1.0493055,0,0,1.1748352,-1.7473493,-17.106244)">
    <path
       style="display:inline;fill:#ffffff;fill-opacity:1;stroke:none;stroke-width:12;stroke-linejoin:bevel"
       d="m 31.625,53.25 52.625,-4 c 2.424419,4.24098 5.932776,6.772673 2.5,20.25 L 67.25,69 42.875,76.5 C 27.067853,72.666162 26.72843,59.158658 31.625,53.25 Z"
       id="path2053" />
    <path
       id="path1828"
       style="display:inline;fill:#6f91fd;fill-opacity:1;stroke:none;stroke-width:12;stroke-linejoin:bevel"
       d="m 80.167969,54.205078 -4.021485,6.671875 c 0.941843,2.748005 1.504191,5.733965 4.242188,7.359375 L 84.875,65.451172 C 85.47033,60.451597 84.83997,56.161301 80.167969,54.205078 Z M 38.875,58.90625 c -1.597956,2.563444 -5.943883,4.562739 -0.34375,12.46875 l 8.125,0.46875 c 4.75466,-2.946157 4.085799,-5.691452 4.28125,-8.46875 z" />
    <path
       style="display:inline;fill:#fcd515;stroke-width:0.32"
       d="M 8.8180433,42.424794 C 7.9305274,39.676514 8.2079817,36.745488 7.9216587,33.9029 c 1.1151733,0.995538 2.2465423,1.97167 3.4344993,2.88 -1.5032823,-1.407572 -0.254251,-1.184986 0.346989,-0.185824 -0.0017,0.451237 1.06044,-0.300889 0.897565,0.528081 1.579197,0.488257 1.41588,-1.025787 1.597258,-2.143745 0.393661,-3.417047 0.963248,-6.878546 2.469251,-10.004091 0.889936,2.780286 5.89571,6.926642 6.006844,1.502802 0.05828,-2.019952 1.097828,-8.932822 2.629365,-3.70259 0.497236,2.622356 2.943733,7.779352 4.592535,2.868874 1.652823,-2.656225 2.355971,-7.587623 5.458558,-8.474425 1.543012,1.612566 2.115073,6.444993 4.673155,5.729862 -0.381173,-2.28639 1.076907,-8.741426 2.82927,-3.570926 0.432605,4.753365 4.085248,0.0052 5.896095,-1.620131 1.395789,-1.050033 2.791579,-2.100064 4.187369,-3.150095 0.922174,1.415926 0.487893,3.285778 0.827263,4.896733 -0.145664,1.287844 1.314357,1.902981 2.31842,1.30738 2.926254,-1.590812 6.061042,-2.832981 8.721091,-4.868856 0.213333,2.673821 0.426667,5.347643 0.64,8.021464 1.153482,1.168938 2.76404,0.34333 4.186836,0.337062 5.43717,-0.562577 10.859945,-1.41872 16.133164,-2.878191 0.219711,2.897719 -0.812983,5.702074 -2.240003,8.18112 -0.356987,1.204885 0.608802,2.001617 1.739032,2.126214 2.795208,0.744501 5.581197,1.513798 8.134238,2.909656 -1.275145,0.668283 -3.371994,0.621585 -3.814887,2.18769 -0.231673,1.416694 1.081915,1.718122 2.101617,2.23166 1.759729,0.0035 3.519458,0.0069 5.279187,0.0104 -0.31061,1.190249 -1.251271,2.300922 -1.96762,3.311008 -0.738664,0.760538 -2.303765,1.087654 -2.51174,2.126509 -1.87308,2.324246 -5.513868,3.560471 -8.266568,5.04004 C 71.423331,55.329657 57.006349,55.067456 43.296704,53.851793 38.865862,53.488257 34.397267,53.226071 29.979721,53.835783 23.174902,53.472575 18.111558,48.162746 11.850206,46.201099 9.2120595,46.79695 9.6664128,44.264188 8.8180433,42.424794 Z"
       id="path410" />
    <path
       id="path2014"
       style="display:inline;fill:#d7b611;stroke-width:0.32"
       d="m 16.875,31.679687 c -0.299558,0.736623 -0.570322,1.480847 -0.582232,2.285945 -0.08187,0.986699 -0.28284,1.978098 -0.290211,2.961856 0.33024,1.625007 0.602656,3.271343 0.970795,4.882749 0.197826,0.193436 0.467957,1.19267 0.610885,0.753065 0.590741,-1.695465 1.181101,-3.391062 1.771232,-5.08674 0.385741,1.236966 0.611725,2.537236 1.302161,3.653747 0.296245,0.5181 0.507126,1.119875 0.856363,1.586032 0.416316,0.223264 0.832924,0.445981 1.249679,0.668424 0.711794,-0.420678 1.424033,-0.8406 2.136719,-1.259765 0.143099,0.672693 0.286983,1.345218 0.43164,2.017578 0.563854,-1.572715 1.128538,-3.145132 1.695313,-4.716797 -0.509993,-0.152974 -0.966571,0.310412 -1.452277,0.431668 -0.953407,0.401044 -1.906815,0.802088 -2.860223,1.203132 -0.435356,-0.763678 -1.121981,-1.416087 -1.239074,-2.320701 -0.204387,-0.934579 -0.556336,-1.850078 -0.669129,-2.796235 0,-0.911542 0,-1.823085 0,-2.734627 -0.316356,-0.507501 -0.573812,-0.388892 -0.794106,0.124779 -0.610015,0.890699 -1.264299,1.757019 -1.626938,2.785602 -0.336386,0.754988 -0.675,1.508979 -1.01255,2.263447 -0.165004,-2.234462 -0.33102,-4.468848 -0.498047,-6.703159 z m 17.052734,6.1875 c -0.749192,0.47197 -1.616076,0.786733 -2.287596,1.362452 -1.264153,1.244425 -2.528315,2.488841 -3.792482,3.733251 -0.0032,0.454142 -0.102131,1.129528 0.375175,0.474269 0.975371,-0.939326 1.962372,-1.865167 3.091736,-2.619593 0.436606,-0.247369 0.775096,-0.792747 1.331917,-0.674988 0.01767,2.564166 -0.03533,5.141516 0.02649,7.697448 0.180236,0.223555 0.242941,1.109663 0.493298,0.921709 0.951407,-1.070451 1.843798,-2.203818 2.830107,-3.236764 1.354731,-0.986422 2.655229,-2.060125 4.044177,-2.991481 1.191771,-0.601236 2.383287,-1.202978 3.574675,-1.804975 0.279914,0.452075 0.667268,0.870048 0.564464,1.440991 -0.08467,0.893531 0.518789,1.623914 0.814676,2.427195 0.221928,0.488599 0.443856,0.977199 0.665784,1.465799 0.803177,-1.301948 1.710561,-2.55114 2.446375,-3.887379 0.102355,-0.349005 0.595185,-1.198877 -0.02041,-0.622553 -0.571677,0.406956 -1.143354,0.813913 -1.715031,1.220869 -0.520461,-0.360098 -0.290568,-1.072894 -0.422178,-1.615768 -0.0916,-0.978346 -0.183385,-1.956676 -0.275088,-2.935013 -0.592277,-0.01237 -1.183596,-0.02473 -1.696445,0.317487 -1.107913,0.500892 -2.240933,0.955935 -3.220709,1.690824 -1.112088,0.75994 -2.303291,1.417421 -3.36587,2.241179 -1.153824,1.058703 -2.308296,2.116699 -3.46307,3.174366 0,-2.593108 0,-5.186217 -2e-6,-7.779325 z" />
    <path
       id="path398"
       style="display:inline;fill:#01305b;stroke-width:0.32"
       d="M 8.8763263,77.321606 C 8.3490124,74.971763 7.1488277,72.716707 7.367187,70.261823 5.2417615,67.920144 3.0772032,65.446353 2.3691589,62.27506 1.4939478,60.071739 2.1118817,57.623673 1.9271871,55.307168 2.6475653,52.867687 3.5422905,50.50889 5.0309689,48.424964 5.8967429,46.684747 7.7697445,45.81129 9.127187,44.494173 c 0.5869616,-1.164913 0.926487,2.846721 2.556978,0.626672 1.714001,-1.04446 3.813514,-1.384888 5.778668,-1.487706 2.118572,0.134607 4.260328,0.165341 6.181027,1.186476 1.896019,0.74117 3.669461,1.912842 5.271037,3.135679 1.471156,1.249673 1.813766,3.191417 2.56767,4.880939 1.604265,0.229608 1.921574,-1.984582 3.140874,-2.68371 2.005977,-1.565051 3.988847,-3.168751 6.419184,-4.023991 1.346517,-0.742483 2.53549,-0.69119 2.436598,1.124234 0.388391,1.260112 0.412111,2.665424 1.07438,3.816485 2.307743,-2.099169 4.322839,-4.554331 7.007974,-6.194419 1.807448,1.313335 2.341425,3.614059 3.485609,5.441657 -0.411107,2.088771 1.104961,0.03231 1.809395,-0.589381 1.220657,-1.632489 2.521635,-3.214782 3.328045,-5.106151 3.678348,1.667531 7.062055,3.95142 9.808039,6.926492 0.863901,0.820387 1.502022,-1.549185 1.84012,-2.318707 0.751625,-1.630083 1.106906,-3.330701 0.926832,-5.126588 0.02352,-1.356787 -0.429699,-3.386013 1.466344,-2.10161 3.527208,1.012076 6.470843,3.227237 9.301236,5.476701 0.03179,-1.518547 -0.156296,-3.066344 0.41024,-4.513751 2.792156,0.754076 5.722103,0.55104 8.549573,1.10657 0.06323,2.104109 1.901243,3.77902 1.854993,5.963102 0.454364,1.821738 0.519956,3.642114 0.01287,5.460482 -0.08431,2.304025 -1.734724,4.194914 -2.245343,6.321696 0.688737,3.631804 2.064465,7.346534 0.94352,11.039996 -7.659878,34.77302 -71.415601,32.9009 -84.1767237,4.466266 z M 44.647187,75.50597 c 5.233633,-0.09623 9.927715,-2.73053 14.707349,-4.575197 3.593511,-1.522819 7.459469,-2.644878 11.378586,-2.640202 4.305247,0.536436 8.589302,1.391455 12.947467,1.132327 1.385766,0.155358 2.679729,-1.050861 3.190047,-2.262899 1.175773,-1.984988 0.549675,-4.434059 0.868047,-6.639876 -0.21644,-2.951781 -1.008452,-5.93034 -2.153368,-8.640014 -0.70134,-0.810593 -1.765653,-2.35242 -2.717053,-0.903016 -3.243777,3.241528 -7.301554,5.574199 -11.534578,7.267652 -2.986578,0.993827 -6.072772,1.946559 -9.222377,2.109447 -3.687955,-0.07894 -7.425804,0.353863 -11.020578,-0.680829 C 46.2706,58.917237 41.797284,56.861107 37.176534,55.37495 35.666135,54.67954 34.08777,54.379826 32.429916,54.542899 c -0.503579,1.541815 -0.853445,1.942502 -1.809789,0.64 -0.94706,0.783755 -1.359059,2.335808 -1.170701,3.641618 -0.02948,2.337471 -0.137333,4.685249 0.726105,6.905302 0.82677,2.158234 1.961299,4.279001 3.790763,5.762443 1.913882,2.161917 4.682823,3.336132 7.449363,3.981854 1.032354,0.388509 2.158691,0.0047 3.23153,0.03185 z" />
    <path
       style="display:inline;fill:#fce25e;stroke-width:0.32"
       d="m 69.815538,45.542803 c 0.327248,-1.98976 0.206717,-4.009855 0.271655,-6.017385 0.5446,-0.217589 1.035297,-0.713773 1.659728,-0.518733 1.977861,0.193429 3.9728,0.285987 5.939964,0.542598 1.515285,0.388181 3.030571,0.77636 4.545857,1.164538 -0.386647,-0.837787 -0.902458,-1.588578 -1.529793,-2.264255 -0.773031,-0.928887 -1.546058,-1.857777 -2.319087,-2.786666 0.883957,-0.05325 1.817653,0.170785 2.632288,-0.268943 1.276777,-0.473256 2.553554,-0.946513 3.83033,-1.419771 -0.593318,-0.688755 -1.55641,-0.73901 -2.352183,-1.078179 -1.800106,-0.632309 -3.640181,-1.179626 -5.415281,-1.865111 -0.409309,-0.234746 -0.960672,-0.446731 -0.348166,-0.845178 0.676487,-0.837887 1.482371,-1.589952 1.879246,-2.613288 0.237924,-0.630265 0.800948,-1.182394 0.757097,-1.880382 -1.292707,0.318817 -2.596899,0.564868 -3.928577,0.636797 -0.983807,0.09485 -1.967615,0.189692 -2.951423,0.284538 1.878728,0.02984 3.757455,0.05968 5.636183,0.08952 -0.460174,0.700996 -0.774439,1.523063 -1.332005,2.143246 -0.774686,0.66788 -1.549371,1.33576 -2.324056,2.00364 2.206595,1.016643 4.403037,2.056401 6.659878,2.95865 -0.667087,0.264994 -1.309341,0.651096 -2.053754,0.538943 -0.968749,0.01185 -1.937499,0.02369 -2.906249,0.03553 -0.07164,0.496397 0.04358,0.932632 0.406342,1.289162 0.632793,0.880802 1.265585,1.761603 1.898378,2.642405 -0.846589,-0.255952 -1.690173,-0.530097 -2.586769,-0.483324 -2.330608,-0.113685 -4.661215,-0.227366 -6.991823,-0.341047 -0.188707,1.870971 -0.377416,3.741942 -0.566128,5.612912 -1.483736,-1.833124 -2.905527,-3.722696 -4.427733,-5.520762 -0.689604,-0.661131 -1.379207,-1.322261 -2.068811,-1.983391 -0.445778,1.51519 -0.739001,3.068725 -1.101856,4.604758 -1.151029,-1.136731 -2.302057,-2.273463 -3.453084,-3.410195 -0.357475,0.269888 -0.848188,0.44349 -1.126973,0.770246 -0.400977,1.631896 -0.82014,3.259669 -1.136695,4.910711 -0.761708,-0.723825 -1.523416,-1.44765 -2.285123,-2.171476 0.464898,0.986229 0.976079,1.94422 1.67176,2.789644 0.469497,0.646511 0.938991,1.293025 1.408487,1.939537 0.453262,-1.68306 0.906525,-3.366121 1.359788,-5.049181 0.688983,0.08766 0.956806,0.825193 1.427214,1.250126 0.998198,1.148391 1.996396,2.296782 2.994594,3.445173 0.56706,-1.728206 0.881994,-3.528573 1.341728,-5.287497 2.185729,2.657817 4.405416,5.286811 6.676704,7.872006 0.06945,-0.573305 0.138899,-1.146609 0.208348,-1.719914 z"
       id="path2029" />
    <path
       id="path2165"
       style="display:inline;fill:#002243;stroke-width:0.32"
       d="m 5.37128,60.033862 c 0.14074,0.424925 0.55375,1.418308 -0.25865,2.000357 0.68382,0.860419 1.69887,1.076793 1.38649,2.499523 1.45801,-0.09209 1.70417,0.679862 1.1319,2.066525 1.34764,0.88977 3.77293,-2.431342 3.7226,-1.501775 -1.5015,2.023087 0.12195,4.1264 1.83209,1.691228 -1.0129,1.347042 -0.94577,4.293095 1.17187,2.244141 1.83316,-2.362813 0.18841,2.503296 2.31537,0.994354 1.61113,-0.771561 3.25361,-2.267883 3.39148,-4.064751 -0.70063,0.986029 -2.89139,3.217622 -3.38037,2.617315 -0.0986,-1.33015 3.32456,-4.158151 0.28075,-3.339828 -0.98586,-0.03378 -2.93705,2.453965 -1.80443,0.234863 2.22491,-2.71516 -2.92587,-0.140807 -2.4251,-0.481397 C 14.8401,62.861535 10.3654,63.224827 9.66421,64.740892 9.01352,65.057591 10.58032,62.526994 8.7825,63.254518 7.53524,64.201893 6.75474,63.534003 7.60339,62.210601 7.1033,61.358818 4.89175,62.257411 6.46853,60.913613 6.42293,60.39549 5.8114,60.132806 5.37128,60.033862 Z m 7.52149,17.501957 c -0.0487,2.08125 1.82333,4.03904 2.94248,5.24798 -0.69916,3.0514 2.87856,1.20563 3.89047,3.02088 1.28814,0.6225 2.65466,0.33929 3.36807,1.96944 1.39043,0.54331 3.19842,-0.24796 3.54416,1.81339 1.22884,2.32346 4.64619,-2.39006 3.61272,0.92794 -0.72607,3.23074 3.48714,1.67198 4.93262,0.91167 -0.78635,2.83267 2.69788,3.85575 4.49894,1.98266 1.66923,-0.0142 2.60731,-4.09797 3.32422,-1.01443 -0.11046,1.31894 0.74823,2.24979 0.78968,0.33006 -0.0739,-1.9664 0.37214,-4.64785 -0.17275,-6.19701 -1.62215,1.34622 -2.82752,3.43853 -4.95644,4.03228 -0.42513,-1.4429 1.66752,-5.60672 1.42739,-6.81227 -2.32607,1.98167 -4.33566,4.40152 -7.11953,5.77569 -0.15343,-1.18139 1.12659,-3.44232 -1.39453,-3 -1.4143,-0.63919 -3.84118,2.59248 -3.04674,-0.0403 -0.7949,-0.42153 -1.47426,-2.07156 -2.3947,-1.2371 -1.50892,1.73581 -2.95788,0.42274 -3.61163,-1.05995 -2.17745,1.38094 -2.76485,-2.0772 -4.83741,-0.95734 -0.67465,-0.99661 -0.72804,-2.37758 -2.41226,-2.41629 -0.94942,-0.97421 -1.46328,-2.29667 -2.38476,-3.27734 z m 53.91797,0.28906 c -2.27103,1.59031 -1.88083,4.72604 -3.35352,6.86719 -0.42301,2.26339 -3.89289,2.73748 -3.58564,5.16652 -0.1185,3.27636 3.41072,-0.44368 4.19247,-1.60765 1.60106,-2.25039 2.4787,-4.92392 2.69835,-7.66574 0.0596,-0.89726 0.28281,-1.90785 0.0483,-2.76032 z m -8.67188,0.6582 c -2.23395,1.08563 -2.60538,4.23239 -5.01682,5.25818 -2.59454,-0.3916 -1.93451,5.11353 0.42968,2.66359 2.809,-1.47967 4.36181,-4.59583 5.07229,-7.54539 l -0.16869,-0.27809 z" />
    <path
       id="path1999"
       style="display:inline;fill:#000000;stroke-width:0.32"
       d="m 52.939453,14.560547 c -2.877159,1.955662 -5.446358,4.675194 -8.708667,5.742189 -1.425284,-0.167839 -1.579132,-2.454228 -2.478476,-3.498426 -1.242256,-1.325865 -2.19293,0.823306 -2.153688,2.058697 0.07543,1.305722 -0.474735,4.143279 -1.677755,1.849987 -1.114489,-1.312419 -1.288067,-3.201769 -2.221729,-4.533685 -1.314539,-1.277153 -2.033107,1.399769 -3.060466,2.043347 -1.58981,2.484201 -3.052512,5.031197 -3.992188,7.839844 -1.510101,0.06159 -2.004237,-2.116666 -2.737515,-3.2162 -0.697692,-1.148668 -0.704255,-3.627485 -2.514472,-3.160715 -2.246351,2.301476 -1.504546,6.204503 -3.877837,8.465025 -0.831112,0.02264 -1.373454,-2.572636 -2.093663,-3.561023 -0.713252,-2.762123 -1.350963,-0.119826 -2.006851,1.222083 -1.241519,2.705337 -1.722312,5.708239 -1.488407,8.600222 0.126143,1.396462 0.21237,3.698197 -1.571546,1.96054 -1.481733,-0.859991 -2.9862355,-1.759677 -4.4538492,-2.595054 -0.2834681,3.630828 0.069945,7.509302 0.8496093,11.029262 -1.9088363,1.538319 -3.5618453,2.662497 -4.548414,4.994699 -1.445738,2.377657 -2.4249528,5.174779 -2.5378771,7.958667 -0.033418,4.428242 1.9372337,8.667243 5.0600383,11.760799 1.2067341,1.074143 0.2800681,2.920111 1.135559,4.270641 0.7377004,3.371218 2.2469367,6.490738 4.0215367,9.421564 2.84818,3.912935 6.418759,7.406719 10.639363,9.801711 3.524924,1.954052 7.300827,3.38136 11.106668,4.634563 4.705849,0.75077 9.335297,2.285333 14.147219,1.955849 3.803037,-0.116537 7.665716,0.327954 11.429312,-0.162431 4.152439,-0.993056 8.446966,-1.696229 12.510815,-2.871517 1.272153,-0.378898 2.545636,-0.896782 3.787565,-1.856892 3.930942,-1.800152 7.660698,-4.125406 10.524021,-7.407398 3.057768,-2.781419 5.039595,-6.577607 6.219063,-10.497074 0.739896,-3.668923 1.915244,-7.463942 0.675096,-11.166785 -0.165034,-1.821866 -1.470245,-3.770043 -0.21985,-5.435844 2.772193,-4.665973 3.040193,-10.827115 -0.215699,-15.341949 -0.14599,-1.729166 2.541977,-1.768025 3.084599,-3.289853 0.758795,-1.12737 2.427261,-3.150986 -0.137355,-2.55537 -1.958545,-0.02417 -4.002508,0.309335 -5.665994,-0.963452 -0.719476,-1.565851 0.601641,-2.694383 2.074219,-2.902343 2.744081,-0.448774 0.243903,-1.131415 -1.024221,-1.761674 -2.307248,-1.172546 -5.20124,-1.060904 -7.290232,-2.607467 -0.215969,-2.113837 1.741482,-3.661692 1.870623,-5.768369 0.197058,-0.953531 1.11181,-3.946334 -0.373534,-3.451549 -6.039279,1.657157 -12.278842,2.391558 -18.495148,3.030465 -1.824988,-0.584013 -0.989084,-2.78173 -1.366771,-4.243921 -0.252972,-1.301205 0.0049,-3.678662 -0.566105,-4.310015 -2.71003,2.039616 -5.900552,3.275913 -8.85814,4.901592 -1.670605,0.497738 -2.201088,-1.247172 -2.071931,-2.581859 -0.256717,-1.25689 0.09543,-2.738015 -0.726926,-3.800881 z m -0.755859,1.8125 c 0.867641,1.833502 0.430518,4.302028 1.183345,6.195474 1.084136,0.720932 2.621021,-1.05558 3.889774,-1.351092 2.337702,-1.046037 4.53101,-2.35532 6.696412,-3.715476 0.859553,2.343909 -0.04945,5.100806 0.57147,7.366565 1.19332,1.324946 3.147869,0.139991 4.706157,0.261187 5.244901,-0.517413 10.447765,-1.458065 15.56811,-2.701971 0.904568,1.049744 -0.488754,2.733276 -0.497823,4.036039 -0.471512,1.879324 -1.750249,3.386125 -2.984599,4.829195 0.752681,1.120085 2.663055,0.173246 3.823935,0.96818 2.264918,0.493986 4.476089,1.144221 6.547159,2.201742 -1.51828,1.057282 -3.325865,0.812231 -5.0375,1.022031 -1.800057,0.35948 0.771232,1.960708 1.517969,2.397892 2.091867,1.269298 4.493053,1.620275 6.824218,2.134763 -0.23452,1.420893 -1.860115,2.283225 -3.217548,2.823791 -1.867107,1.412263 -4.215759,0.613952 -6.34629,0.448376 -1.831161,-1.089712 -1.990988,1.088404 -1.896498,2.45083 0.556867,2.676497 -1.09171,0.905643 -2.317574,-0.014 -2.43244,-2.058972 -5.427766,-3.276366 -8.438874,-4.224619 -0.07788,2.644916 0.348108,5.379348 -0.970827,7.803253 -0.416744,1.273515 -1.344639,3.695297 -2.496311,1.581863 -2.539022,-2.735287 -5.766906,-4.69127 -9.122716,-6.265976 -1.245817,2.578499 -2.961768,4.963314 -5.138672,6.833985 0.135888,-2.055236 -1.593905,-3.649674 -2.291016,-5.5 -0.9812,-1.728662 -2.156352,-0.440574 -3.300223,0.386746 -1.635827,1.573562 -3.267739,3.151979 -4.902902,4.726535 -0.823867,-1.708475 -0.925167,-3.704329 -1.470703,-5.523437 -3.589111,0.747076 -6.723217,2.950375 -9.284409,5.474127 -0.603458,1.002645 -2.215415,3.022451 -2.690335,0.866062 -0.632076,-2.375626 -2.126161,-4.429506 -4.410021,-5.447611 -2.55711,-1.736732 -5.558005,-2.815399 -8.669616,-2.760902 -2.759754,-0.193262 -5.474033,0.773169 -7.803077,2.21989 -1.3616001,-3.859876 -1.2121614,-6.45301 -1.6445309,-10.503906 1.7294689,1.308876 2.5892939,1.874401 4.6737669,2.27735 2.080393,0.977919 0.834306,-2.131922 1.16285,-3.310573 0.337803,-2.614308 0.934542,-5.226579 1.997448,-7.65623 1.264081,0.424009 1.023021,2.775045 2.496973,3.385539 0.946887,0.635195 2.686015,3.315837 2.808693,0.804403 0.512541,-2.504044 1.255937,-4.946917 1.995116,-7.391114 1.312579,0.477377 1.486756,2.690786 2.489955,3.761665 l 3.527623,3.892679 c 0.713248,-2.656509 0.950643,-5.437061 2.367833,-7.86015 0.578658,-1.297031 1.494765,-2.412643 2.214198,-3.633991 1.250429,0.512492 1.735879,2.382763 2.684541,3.430471 1.054245,1.312599 2.632972,2.141002 3.887725,3.26877 0.370951,-1.6669 0.453143,-3.358235 0.400378,-5.060547 0.920568,-0.713457 1.795259,2.178926 3.173813,1.670115 2.458762,-2.340519 4.958294,-4.617936 7.722603,-6.597918 z m 7.99414,6.810546 c -3.135572,-0.09624 -6.410318,-0.09809 -9.198543,1.545384 -1.40545,0.763518 -2.915427,1.81267 -3.932316,2.929213 0.984821,-0.04731 2.684895,-1.236181 3.950084,-1.732038 1.892372,-1.21458 4.20913,-1.067214 6.338978,-1.519915 0.470687,1.155585 -0.846698,2.662847 -0.943511,3.98968 -0.437931,1.718345 -0.489116,3.002906 1.578311,1.917786 1.613502,-0.495767 3.312201,-0.506399 4.974575,-0.723873 -0.645674,1.450427 -1.508143,2.819446 -1.833984,4.390625 3.15377,-0.794768 6.454996,-0.686563 9.642578,-0.14648 -1.403784,0.845827 -3.673737,1.812407 -4.132812,3.109375 3.06444,-1.044567 6.168066,-2.015398 9.405799,-2.424824 2.546885,-0.239061 -0.238665,-1.384386 -1.293921,-1.609576 -2.068128,-0.975634 -4.236738,-1.447702 -6.525405,-1.317481 -1.143461,-0.324757 -3.93846,0.441009 -3.979051,-0.612963 0.154008,-1.228538 3.991363,-2.056011 2.37256,-2.736619 -2.137183,-0.700801 -4.512585,0.07052 -6.746945,-0.02687 -2.016047,0.649694 -2.02377,0.167988 -1.281882,-1.751254 0.442307,-1.126142 1.086316,-2.183319 1.605485,-3.28017 z m -23.849609,1.183594 c -1.917899,2.160553 -4.271614,4.017952 -5.25,6.832031 -0.961935,0.794361 -0.993466,3.991578 -1.918184,3.073603 -1.107562,-0.597078 -2.286524,-2.258687 -3.351347,-2.223993 -0.368912,1.320914 -0.295264,3.103022 0.07001,4.498259 0.239096,0.746433 1.260194,4.142926 1.215851,1.768456 0.15232,-1.022425 -0.771309,-4.125529 0.09493,-3.767853 1.182393,0.698891 2.279329,2.432141 3.377056,2.661327 0.789607,-2.042752 1.070901,-4.368072 2.366707,-6.252904 0.639152,-0.52001 1.979757,-3.877482 2.129387,-1.801783 0.517759,2.282598 1.22004,4.53006 2.501953,6.507812 1.339368,-0.412379 1.882829,-2.370897 2.901471,-3.407415 1.018958,-2.128316 1.05252,1.449776 1.111475,2.367871 0.183697,2.032208 1.131002,-1.616268 1.218188,-2.408247 0.434922,-2.227934 1.274747,-4.339508 1.979802,-6.489709 -2.549551,1.593094 -4.866797,3.542214 -6.527344,6.074219 -1.055341,-0.500404 -1.259211,-2.680193 -1.570561,-3.944434 -0.116446,-1.162415 -0.232923,-2.324827 -0.349396,-3.48724 z m 38.326172,19.648438 c 3.611081,1.548795 6.736233,3.943702 9.519531,6.6875 0.972159,-0.781018 0.972147,-3.096003 1.856981,-0.467034 2.543992,5.97497 4.832428,12.163556 5.790436,18.598157 -0.298347,3.243999 -0.520126,6.504102 -1.798086,9.542055 -0.602305,2.587547 -2.279931,4.754195 -3.884995,6.801021 -2.165882,2.364853 -4.445009,4.594362 -7.253191,6.188329 -4.759544,2.934853 -10.185608,4.521851 -15.670402,5.44457 -5.544649,1.262688 -11.243052,1.357137 -16.902039,1.196295 -5.105639,-0.182203 -10.174683,-1.293805 -15.023801,-2.873653 -4.503743,-1.430507 -8.73156,-3.573736 -12.554446,-6.353822 -2.712417,-2.139584 -4.953483,-4.830956 -6.762309,-7.776457 -1.63526,-2.854988 -2.6083945,-5.995425 -3.4485385,-9.162743 1.2002074,-0.641577 2.5529605,1.47405 4.0135715,1.442415 1.787954,0.341169 3.549955,0.926756 5.390725,0.780323 -0.44977,-1.268472 -2.912779,-0.717573 -4.053698,-1.61436 C 11.760798,71.428313 9.4668051,70.665883 8.0253906,68.693359 5.3012685,66.461575 4.1432732,62.924577 3.4626681,59.60052 c 0.2145185,-2.415745 -0.020266,-4.948488 1.407304,-7.050746 0.7902791,-2.319495 2.8235461,-3.885099 4.4851088,-5.553587 1.9423991,-1.028881 3.8573541,-2.147224 6.1308601,-2.080609 2.928779,-0.409317 5.860321,0.611444 8.693746,1.291453 2.134228,1.338916 4.914576,2.354273 5.461904,5.130289 0.957433,1.526028 0.8482,2.869317 -0.63398,3.975786 -0.945968,2.289922 -0.906548,4.826141 -0.500291,7.261699 -0.130002,2.744244 1.500116,4.9969 2.547367,7.411523 2.045729,1.906137 3.784803,4.246792 6.535432,5.153917 1.933366,1.059464 4.24244,1.459155 6.413109,1.498225 6.546775,-0.202098 12.221704,-3.81314 18.293386,-5.833406 4.959386,-2.15979 10.538371,-1.709785 15.73426,-0.772846 2.100181,0.264798 4.317155,0.265999 6.390065,0.07428 1.317302,-0.573994 2.592143,-1.190345 3.036311,-2.672942 1.26935,-1.951982 0.395604,-4.495931 0.781031,-6.706933 -0.562954,-2.736262 -1.172087,-8.810008 -4.142578,-10.302734 1.622374,0.63868 3.818284,7.745564 3.429688,10.800512 -0.104742,2.294061 0.495067,4.756871 -1.032413,6.709815 -0.950894,1.199303 -2.352007,1.787006 -3.890753,1.489673 -4.397884,0.31862 -8.708032,-1.068894 -13.065497,-1.108764 -6.81795,0.321109 -12.725581,4.098225 -19.079835,6.124128 -2.722096,0.847735 -5.659456,1.437584 -8.484585,1.108646 -3.137275,-0.601553 -6.246042,-1.896017 -8.343484,-4.389557 -2.412459,-2.115499 -3.63607,-5.296355 -4.174034,-8.390382 0.245966,-2.448302 -0.675313,-5.179971 0.833208,-7.321768 1.204969,0.217767 1.512354,0.96891 2.397286,-0.903163 3.191401,-0.278301 6.001251,1.636461 9.017232,2.411167 3.777797,1.439153 7.643439,2.551929 11.643539,3.165854 3.324955,0.488835 6.757033,0.173002 10.110957,0.18026 5.565089,-0.938212 10.99816,-2.857287 15.603594,-6.17133 0.385064,1.168691 -1.414273,2.588101 -1.908702,3.857428 -0.644833,1.406582 -2.188325,2.555815 -1.944814,4.216791 1.556555,-0.80138 1.169697,2.307279 1.849945,3.272865 0.546389,1.146812 2.417843,2.191405 2.405915,3.264244 0.367484,0.791861 2.47532,-0.987648 3.398669,-1.496961 1.264069,-0.792765 2.627233,-1.41572 3.931409,-2.139758 -2.274183,0.611787 -1.363549,-0.785568 -1.35737,-2.2937 -0.278074,-1.216058 -0.541541,-3.145777 -0.635017,-2.918142 -0.161662,0.393682 0.720494,5.355975 -0.889458,5.644093 -1.308817,0.536566 -2.646991,1.818269 -3.939528,1.908484 -1.747036,-0.769528 -2.134893,-2.846642 -2.908998,-4.407429 -0.627972,-1.561582 -0.06594,-2.825935 1.079452,-3.942785 0.827148,-1.356261 1.448632,-2.841445 2.201698,-4.244427 2.150351,0.925858 3.320665,3.06941 4.496037,5.160424 0.08875,-1.998705 -1.359009,-4.083061 -2.554359,-5.506336 -2.163776,-0.22676 -1.98927,-1.507614 -0.487538,-2.477934 0.353226,-0.299532 0.839574,-0.873425 1.252234,-1.168771 0.464259,-0.332275 0.786779,-0.51816 0.784707,-0.536228 -0.05074,-0.44254 -1.745788,0.915422 -2.456141,1.700276 0.06582,-1.626114 -1.402696,0.925413 -2.171659,1.545366 -2.920782,1.677824 -5.937907,3.127546 -9.207322,3.984263 -3.537585,1.057739 -7.250874,1.653972 -10.952834,1.464915 -5.81372,0.253557 -11.524602,-1.318759 -16.993447,-3.134748 -2.812709,-1.070959 -5.612577,-2.184597 -8.588584,-2.714855 2.145931,-2.007598 4.202309,-4.141132 6.982778,-5.25373 1.82826,-1.468871 2.06026,0.963126 2.325386,2.323947 0.410059,1.321234 0.461792,2.78453 1.123476,4.005955 2.533368,-2.435567 4.588745,-5.42036 7.548828,-7.365234 1.218012,2.124194 2.343026,4.28273 2.614068,6.753776 0.547507,1.714563 2.070791,-0.874663 2.837872,-1.454224 1.65585,-1.519743 2.775807,-3.490129 4.135951,-5.258537 3.685323,1.915913 6.920879,4.655028 9.429688,7.964844 1.631084,-1.726595 2.770417,-3.734784 3.436579,-6.01307 0.650105,-1.509298 0.482488,-3.250355 0.75477,-4.854153 z m 10.482422,0.173828 c 6.029157,-0.979857 9.790265,4.671804 8.669802,10.304315 -0.465918,1.957657 -2.406945,8.065227 -3.426636,3.622719 L 85.794922,47.78125 c -0.04814,-1.223988 -0.309529,-2.421409 -0.658203,-3.591797 z M 38.804687,58.457031 c -0.718055,0 -3.329352,0.450085 -3.503707,0.700844 2.23324,-0.26447 2.045089,0.802887 0.958628,2.360159 -1.219671,1.672318 -0.845459,3.848107 -0.686374,5.750563 0.855229,1.173069 0.891853,3.239884 2.514658,3.575146 0.410743,1.402582 -3.755428,0.358301 -0.814319,0.924193 3.142074,0.604457 6.398605,0.101539 9.485327,0.954234 0.864775,0.396488 3.823395,-0.498478 1.602429,-0.731958 -2.30759,-0.161354 1.239209,-1.376798 1.338548,-2.55072 1.718583,-3.197071 1.210683,-5.631073 1.223346,-5.85762 0.01388,-0.24833 -0.264211,3.46892 -1.245486,5.070449 -0.884055,1.785633 -2.867596,3.140035 -4.897734,2.671779 -1.962173,-0.223387 -4.159475,0.03137 -5.974245,-0.494189 -1.239304,-1.259653 -2.307451,-2.613518 -2.559842,-4.414616 -0.398543,-2.359855 0.406405,-4.845478 2.246493,-6.410375 1.214691,-0.972181 2.90497,0.52904 4.278207,0.71975 2.523162,0.98887 5.306113,1.511769 7.663075,2.798745 1.237216,0.835817 3.005583,0.377545 4.453125,0.699219 -1.941411,-1.547185 -4.622124,-1.924398 -6.867614,-2.99 -2.996991,-1.163696 -6.059668,-2.143416 -9.214513,-2.775603 z" />
  </g>
</svg>
